<svg viewBox="0 0 512 512" xmlns="http://www.w3.org/2000/svg"><path d="m512 256c0 141.386719-114.613281 256-256 256s-256-114.613281-256-256 114.613281-256 256-256 256 114.613281 256 256zm0 0" fill="#ff4545"/><path d="m512 256c0-11.808594-.816406-23.425781-2.363281-34.808594l-87.023438-87.019531-333.226562 220.886719 156.734375 156.734375c3.277344.125 6.570312.207031 9.878906.207031 141.386719 0 256-114.613281 256-256zm0 0" fill="#db0404"/><path d="m94.386719 139.171875h323.226562v210.886719h-323.226562zm0 0" fill="#fff"/><path d="m255.605469 139.171875h162.007812v210.886719h-162.007812zm0 0" fill="#dce1eb"/><path d="m422.613281 355.058594h-333.226562v-220.886719h333.226562zm-323.226562-10h313.226562v-200.886719h-313.226562zm0 0" fill="#2d2d2d"/><path d="m422.613281 134.171875h-167.007812v10h157.007812v200.886719h-157.007812v10h167.007812zm0 0" fill="#222223"/><path d="m235.5 350.058594h41v34.769531h-41zm0 0" fill="#2d2d2d"/><path d="m255.605469 350.058594h20.894531v34.769531h-20.894531zm0 0" fill="#222223"/><path d="m152.777344 373.328125h206.445312v23h-206.445312zm0 0" fill="#2d2d2d"/><path d="m255.605469 373.328125h103.617187v23h-103.617187zm0 0" fill="#222223"/><path d="m99.332031 144h313.332031v48.332031h-313.332031zm0 0" fill="#00edff"/><path d="m255.605469 144h157.0625v48.332031h-157.0625zm0 0" fill="#0ac0ea"/><path d="m377.5 176.5h-243c-5.246094 0-9.5-4.253906-9.5-9.5s4.253906-9.5 9.5-9.5h243c5.246094 0 9.5 4.253906 9.5 9.5s-4.253906 9.5-9.5 9.5zm0 0" fill="#fff"/><path d="m377.5 157.5h-121.894531v19h121.894531c5.246094 0 9.5-4.253906 9.5-9.5s-4.253906-9.5-9.5-9.5zm0 0" fill="#dce1eb"/><path d="m134.5 157.5c-5.246094 0-9.5 4.253906-9.5 9.5s4.253906 9.5 9.5 9.5h46.5v-19zm0 0" fill="#9a4dff"/><path d="m125 209.5h74.5v69.945312h-74.5zm0 0" fill="#b180ff"/><path d="m211.5 294.5h175.5v50.5h-175.5zm0 0" fill="#ffe85f"/><path d="m255.605469 294.5h131.394531v50.5h-131.394531zm0 0" fill="#ffbc00"/><path d="m211.5 209.5h175.5v16.5h-175.5zm0 0" fill="#d2d2d7"/><path d="m255.605469 209.5h131.394531v16.5h-131.394531zm0 0" fill="#b9b9be"/><path d="m211.5 236.222656h175.5v16.5h-175.5zm0 0" fill="#d2d2d7"/><path d="m255.605469 236.222656h131.394531v16.5h-131.394531zm0 0" fill="#b9b9be"/><path d="m211.5 262.945312h175.5v16.5h-175.5zm0 0" fill="#d2d2d7"/><path d="m255.605469 262.945312h131.394531v16.5h-131.394531zm0 0" fill="#b9b9be"/><g fill="#d2d2d7"><path d="m123.75 294.5h75.75v16.5h-75.75zm0 0"/><path d="m123.75 321.222656h75.75v16.5h-75.75zm0 0"/></g></svg>